{
  "asset": {
    "generator": "Khronos glTF Blender I/O v5.1.20",
    "version": "2.0"
  },
  "scene": 0,
  "scenes": [
    {
      "name": "Scene",
      "nodes": [
        0
      ]
    }
  ],
  "nodes": [
    {
      "mesh": 0,
      "name": "vintage_day_bed"
    }
  ],
  "materials": [
    {
      "doubleSided": true,
      "name": "vintage_day_bed",
      "normalTexture": {
        "index": 0
      },
      "pbrMetallicRoughness": {
        "baseColorTexture": {
          "index": 1
        },
        "metallicRoughnessTexture": {
          "index": 2
        }
      }
    }
  ],
  "meshes": [
    {
      "name": "bed.001",
      "primitives": [
        {
          "attributes": {
            "POSITION": 0,
            "NORMAL": 1,
            "TEXCOORD_0": 2
          },
          "indices": 3,
          "material": 0
        }
      ]
    }
  ],
  "textures": [
    {
      "sampler": 0,
      "source": 0
    },
    {
      "sampler": 0,
      "source": 1
    },
    {
      "sampler": 0,
      "source": 2
    }
  ],
  "images": [
    {
      "mimeType": "image/jpeg",
      "name": "vintage_day_bed_nor_gl",
      "uri": "textures/vintage_day_bed_nor_gl_1k.jpg"
    },
    {
      "mimeType": "image/jpeg",
      "name": "vintage_day_bed_diff",
      "uri": "textures/vintage_day_bed_diff_1k.jpg"
    },
    {
      "mimeType": "image/jpeg",
      "name": "vintage_day_bed_metal-vintage_day_bed_rough",
      "uri": "textures/vintage_day_bed_arm_1k.jpg"
    }
  ],
  "accessors": [
    {
      "bufferView": 0,
      "componentType": 5126,
      "count": 2000,
      "max": [
        0.9862790703773499,
        1.1273400783538818,
        0.38532283902168274
      ],
      "min": [
        -0.9862761497497559,
        -0.0000064620744524290785,
        -0.4694533050060272
      ],
      "type": "VEC3"
    },
    {
      "bufferView": 1,
      "componentType": 5126,
      "count": 2000,
      "type": "VEC3"
    },
    {
      "bufferView": 2,
      "componentType": 5126,
      "count": 2000,
      "type": "VEC2"
    },
    {
      "bufferView": 3,
      "componentType": 5123,
      "count": 8145,
      "type": "SCALAR"
    }
  ],
  "bufferViews": [
    {
      "buffer": 0,
      "byteLength": 24000,
      "byteOffset": 0,
      "target": 34962
    },
    {
      "buffer": 0,
      "byteLength": 24000,
      "byteOffset": 24000,
      "target": 34962
    },
    {
      "buffer": 0,
      "byteLength": 16000,
      "byteOffset": 48000,
      "target": 34962
    },
    {
      "buffer": 0,
      "byteLength": 16290,
      "byteOffset": 64000,
      "target": 34963
    }
  ],
  "samplers": [
    {
      "magFilter": 9729,
      "minFilter": 9987
    }
  ],
  "buffers": [
    {
      "byteLength": 80292,
      "uri": "vintage_day_bed.bin"
    }
  ]
}